  <svg id="info" viewBox="0 0 50 50" fill="none" xmlns="http://www.w3.org/2000/svg">
    <g clip-path="url(#clip0_2085_12613)">
      <path fill-rule="evenodd" clip-rule="evenodd" d="M45 25C45 13.9118 36.0882 5 25 5C13.9118 5 5 13.9118 5 25C5 36.0882 13.9118 45 25 45C36.0882 45 45 36.0882 45 25ZM50 25C50 11.1503 38.8497 0 25 0C11.1503 0 0 11.1503 0 25C0 38.8497 11.1503 50 25 50C38.8497 50 50 38.8497 50 25ZM24.9999 38.75C23.205 38.75 21.7499 37.2949 21.7499 35.5V24.5C21.7499 22.7051 23.205 21.25 24.9999 21.25C26.7948 21.25 28.2499 22.7051 28.2499 24.5V35.5C28.2499 37.2949 26.7948 38.75 24.9999 38.75ZM21.7499 14.7499C21.7499 16.5449 23.205 17.9999 24.9999 17.9999C26.7948 17.9999 28.2499 16.5449 28.2499 14.7499C28.2499 12.955 26.7948 11.4999 24.9999 11.4999C23.205 11.4999 21.7499 12.955 21.7499 14.7499Z" fill="currentColor"/>
    </g>
    <defs>
      <clipPath id="clip0_2085_12613">
        <rect width="50" height="50" fill="white"/>
      </clipPath>
    </defs>
  </svg>
  