<?xml version="1.0" encoding="UTF-8"?>
<!-- This file is generated by npm run build:icons -->
<svg xmlns="http://www.w3.org/2000/svg" xmlns:xlink="http://www.w3.org/1999/xlink" width="0" height="0">
<defs>
<symbol fill="none" viewBox="0 0 326 326" id="big-cup"><path stroke="#D6D6D6" stroke-dasharray="12 15" stroke-linecap="round" stroke-linejoin="round" stroke-width="8" d="M97.8 48.9H32.6v48.9c0 43.229 38.465 78.598 87.081 81.33m86.638 0c48.616-2.732 87.081-38.101 87.081-81.33V48.9h-65.2"></path><path fill="#F7F7F7" d="M130.4 211.9v-25.023h65.2V211.9c0 18.005 14.596 32.6 32.6 32.6h16.3v48.9h-163v-48.9h16.3c18.004 0 32.6-14.595 32.6-32.6Z"></path><path fill="#EBEBEB" stroke="#D6D6D6" stroke-dasharray="12 15" stroke-linecap="round" stroke-linejoin="round" stroke-width="8" d="M97.8 32.6h130.4v97.8c0 36.009-29.191 65.2-65.2 65.2s-65.2-29.191-65.2-65.2V32.6Z"></path><path stroke="#D6D6D6" stroke-dasharray="12 15" stroke-linecap="round" stroke-linejoin="round" stroke-width="8" d="M130.4 186.877V211.9c0 18.005-14.596 32.6-32.6 32.6H81.5v48.9h163v-48.9h-16.3c-18.004 0-32.6-14.595-32.6-32.6v-25.023"></path></symbol>
<symbol fill="none" viewBox="0 0 54 54" id="bla"><g clip-path="url(#a)"><path stroke="currentColor" stroke-width="5" d="M45.667 33.072C45.667 42.973 37.667 51 27 51 16.333 51 8.333 42.974 8.333 33.072 8.333 23.172 16.333 3 27 3c10.667 0 18.667 20.171 18.667 30.072Z"></path><path fill="currentColor" d="M23.666 33 27 40.334l3.334-7.332 7.333-3.334-7.333-3.334L27 19l-3.334 7.333-7.333 3.334L23.666 33Z"></path></g><defs><clipPath id="a"><path fill="currentColor" d="M.333.333h53.333v53.333H.333z"></path></clipPath></defs></symbol>
<symbol fill="none" viewBox="0 0 100 100" id="dd"><path fill="currentColor" d="M25 10V5h50v5h10v5h5v10h5v50h-5v10h-5v5H75v5H25v-5H15v-5h-5V75H5V25h5V15h5v-5h10Z"></path><path fill="#000" d="M10 10h5v5h-5zM5 15h5v5H5zM5 20h5v5H5zM0 25h5v5H0zM15 5h5v5h-5zM20 5h5v5h-5zM25 0h5v5h-5zM85 5v5h-5V5zM80 5v5h-5V5zM75 0v5h-5V0zM95 15v5h-5v-5zM95 20v5h-5v-5zM100 25v5h-5v-5zM90 10v5h-5v-5zM90 90h-5v-5h5zM95 85h-5v-5h5zM95 80h-5v-5h5zM100 75h-5v-5h5zM85 95h-5v-5h5zM80 95h-5v-5h5zM75 100h-5v-5h5zM10 90v-5h5v5zM15 95v-5h5v5zM20 95v-5h5v5zM25 100v-5h5v5zM5 85v-5h5v5zM5 80v-5h5v5zM0 75v-5h5v5zM0 70V30h5v40zM30 0h40v5H30zM30 95h40v5H30zM95 70V30h5v40z"></path><path fill="#E25A0E" d="M5 75v-5h5v5zM10 80v-5h5v5zM20 85v-5h5v5zM25 90v-5h5v5zM30 90v-5h5v5zM35 90v-5h5v5zM40 90v-5h5v5zM45 90v-5h5v5zM50 90v-5h5v5zM55 90v-5h5v5zM60 90v-5h5v5zM65 90v-5h5v5zM70 90v-5h5v5zM75 85v-5h5v5zM85 80v-5h5v5zM90 75v-5h5v5zM85 85v-5h5v5zM80 85v-5h5v5zM80 90v-5h5v5zM75 90v-5h5v5zM70 95v-5h5v5zM65 95v-5h5v5zM60 95v-5h5v5zM55 95v-5h5v5zM50 95v-5h5v5zM45 95v-5h5v5zM40 95v-5h5v5zM35 95v-5h5v5zM30 95v-5h5v5zM25 95v-5h5v5zM20 90v-5h5v5zM15 90v-5h5v5zM15 85v-5h5v5zM10 85v-5h5v5z"></path><path fill="#fff" d="M10 15v5h5v-5z"></path><path fill="#F7C21A" d="M10 20v5h5v-5zM85 20v5h5v-5zM90 25v5h5v-5zM90 30v5h5v-5zM90 35v5h5v-5zM90 40v5h5v-5zM90 45v5h5v-5zM90 50v5h5v-5zM90 55v5h5v-5zM90 60v5h5v-5zM90 65v5h5v-5zM5 25v5h5v-5zM5 30v5h5v-5zM5 35v5h5v-5zM5 40v5h5v-5zM5 45v5h5v-5zM5 50v5h5v-5zM5 55v5h5v-5zM5 60v5h5v-5zM5 65v5h5v-5z"></path><path fill="#fff" d="M15 10v5h5v-5zM20 10v5h5v-5zM25 5v5h5V5zM30 5v5h5V5zM35 5v5h5V5zM40 5v5h5V5zM45 5v5h5V5zM50 5v5h5V5zM55 5v5h5V5zM60 5v5h5V5zM65 5v5h5V5zM70 5v5h5V5zM75 10v5h5v-5zM80 10v5h5v-5zM85 15v5h5v-5z"></path><path fill="#000" d="M50 75v5h5v-5zM45 75v5h5v-5zM40 70v5h5v-5zM40 65v5h5v-5zM50 65v-5h-5v5zM45 60v-5h-5v5zM45 55v-5h-5v5zM50 50v-5h-5v5zM55 45v-5h-5v5zM60 40v-5h-5v5zM55 35v-5h-5v5zM50 35v-5h-5v5zM45 40v-5h-5v5zM40 45v-5h-5v5zM35 45v-5h-5v5zM55 65v-5h-5v5zM60 60v-5h-5v5zM65 55v-5h-5v5zM70 50v-5h-5v5zM75 45v-5h-5v5zM75 40v-5h-5v5zM75 35v-5h-5v5zM70 30v-5h-5v5zM65 25v-5h-5v5zM60 20v-5h-5v5zM55 20v-5h-5v5zM50 20v-5h-5v5zM45 20v-5h-5v5zM40 25v-5h-5v5zM35 30v-5h-5v5zM30 40v-5h-5v5zM30 35v-5h-5v5zM60 70v-5h-5v5zM60 75v-5h-5v5z"></path><path fill="#fff" d="M30 30v5h5v-5zM35 25v5h5v-5zM45 20v5h5v-5zM40 20v5h5v-5zM50 20v5h5v-5zM55 20v5h5v-5z"></path><path fill="#F7C21A" d="M65 30v5h5v-5zM60 30v5h5v-5zM65 35v5h5v-5zM30 35v5h5v-5z"></path><path fill="#F7931A" d="M40 30v5h5v-5zM35 35v5h5v-5zM45 25v5h5v-5zM50 25v5h5v-5zM55 30v5h5v-5zM60 35v5h5v-5zM60 40v5h5v-5zM55 40v5h5v-5zM55 45v5h5v-5zM50 45v5h5v-5zM50 50v5h5v-5zM45 50v5h5v-5zM50 55v5h5v-5zM50 65v5h5v-5zM45 65v5h5v-5z"></path><path fill="#F7C21A" d="M35 30v5h5v-5zM60 25v5h5v-5zM55 25v5h5v-5zM40 25v5h5v-5zM65 40v5h5v-5zM60 45v5h5v-5zM55 50v5h5v-5z"></path><path fill="#E25A0E" d="M45 70v5h5v-5zM50 70v5h5v-5zM45 55v5h5v-5z"></path></symbol>
<symbol fill="none" viewBox="0 0 50 50" id="info"><g clip-path="url(#a)"><path fill="currentColor" fill-rule="evenodd" d="M45 25c0-11.088-8.912-20-20-20S5 13.912 5 25s8.912 20 20 20 20-8.912 20-20Zm5 0C50 11.15 38.85 0 25 0S0 11.15 0 25s11.15 25 25 25 25-11.15 25-25ZM25 38.75a3.25 3.25 0 0 1-3.25-3.25v-11a3.25 3.25 0 0 1 6.5 0v11A3.25 3.25 0 0 1 25 38.75Zm-3.25-24a3.25 3.25 0 1 0 6.5 0 3.25 3.25 0 0 0-6.5 0Z" clip-rule="evenodd"></path></g><defs><clipPath id="a"><path fill="#fff" d="M0 0h50v50H0z"></path></clipPath></defs></symbol>
</defs>
</svg>
