<svg xmlns="http://www.w3.org/2000/svg" fill="none" viewBox="0 0 326 326"><path stroke="#D6D6D6" stroke-dasharray="12 15" stroke-linecap="round" stroke-linejoin="round" stroke-width="8" d="M97.8 48.9H32.6v48.9c0 43.229 38.465 78.598 87.081 81.33m86.638 0c48.616-2.732 87.081-38.101 87.081-81.33V48.9h-65.2"/><path fill="#F7F7F7" d="M130.4 211.9v-25.023h65.2V211.9c0 18.005 14.596 32.6 32.6 32.6h16.3v48.9h-163v-48.9h16.3c18.004 0 32.6-14.595 32.6-32.6Z"/><path fill="#EBEBEB" stroke="#D6D6D6" stroke-dasharray="12 15" stroke-linecap="round" stroke-linejoin="round" stroke-width="8" d="M97.8 32.6h130.4v97.8c0 36.009-29.191 65.2-65.2 65.2s-65.2-29.191-65.2-65.2V32.6Z"/><path stroke="#D6D6D6" stroke-dasharray="12 15" stroke-linecap="round" stroke-linejoin="round" stroke-width="8" d="M130.4 186.877V211.9c0 18.005-14.596 32.6-32.6 32.6H81.5v48.9h163v-48.9h-16.3c-18.004 0-32.6-14.595-32.6-32.6v-25.023"/></svg>