<svg xmlns="http://www.w3.org/2000/svg" fill="none" viewBox="0 0 100 100"><path fill="currentColor" d="M25 10V5h50v5h10v5h5v10h5v50h-5v10h-5v5H75v5H25v-5H15v-5h-5V75H5V25h5V15h5v-5h10Z"/><path fill="#000" d="M10 10h5v5h-5zM5 15h5v5H5zM5 20h5v5H5zM0 25h5v5H0zM15 5h5v5h-5zM20 5h5v5h-5zM25 0h5v5h-5zM85 5v5h-5V5zM80 5v5h-5V5zM75 0v5h-5V0zM95 15v5h-5v-5zM95 20v5h-5v-5zM100 25v5h-5v-5zM90 10v5h-5v-5zM90 90h-5v-5h5zM95 85h-5v-5h5zM95 80h-5v-5h5zM100 75h-5v-5h5zM85 95h-5v-5h5zM80 95h-5v-5h5zM75 100h-5v-5h5zM10 90v-5h5v5zM15 95v-5h5v5zM20 95v-5h5v5zM25 100v-5h5v5zM5 85v-5h5v5zM5 80v-5h5v5zM0 75v-5h5v5zM0 70V30h5v40zM30 0h40v5H30zM30 95h40v5H30zM95 70V30h5v40z"/><path fill="#E25A0E" d="M5 75v-5h5v5zM10 80v-5h5v5zM20 85v-5h5v5zM25 90v-5h5v5zM30 90v-5h5v5zM35 90v-5h5v5zM40 90v-5h5v5zM45 90v-5h5v5zM50 90v-5h5v5zM55 90v-5h5v5zM60 90v-5h5v5zM65 90v-5h5v5zM70 90v-5h5v5zM75 85v-5h5v5zM85 80v-5h5v5zM90 75v-5h5v5zM85 85v-5h5v5zM80 85v-5h5v5zM80 90v-5h5v5zM75 90v-5h5v5zM70 95v-5h5v5zM65 95v-5h5v5zM60 95v-5h5v5zM55 95v-5h5v5zM50 95v-5h5v5zM45 95v-5h5v5zM40 95v-5h5v5zM35 95v-5h5v5zM30 95v-5h5v5zM25 95v-5h5v5zM20 90v-5h5v5zM15 90v-5h5v5zM15 85v-5h5v5zM10 85v-5h5v5z"/><path fill="#fff" d="M10 15v5h5v-5z"/><path fill="#F7C21A" d="M10 20v5h5v-5zM85 20v5h5v-5zM90 25v5h5v-5zM90 30v5h5v-5zM90 35v5h5v-5zM90 40v5h5v-5zM90 45v5h5v-5zM90 50v5h5v-5zM90 55v5h5v-5zM90 60v5h5v-5zM90 65v5h5v-5zM5 25v5h5v-5zM5 30v5h5v-5zM5 35v5h5v-5zM5 40v5h5v-5zM5 45v5h5v-5zM5 50v5h5v-5zM5 55v5h5v-5zM5 60v5h5v-5zM5 65v5h5v-5z"/><path fill="#fff" d="M15 10v5h5v-5zM20 10v5h5v-5zM25 5v5h5V5zM30 5v5h5V5zM35 5v5h5V5zM40 5v5h5V5zM45 5v5h5V5zM50 5v5h5V5zM55 5v5h5V5zM60 5v5h5V5zM65 5v5h5V5zM70 5v5h5V5zM75 10v5h5v-5zM80 10v5h5v-5zM85 15v5h5v-5z"/><path fill="#000" d="M50 75v5h5v-5zM45 75v5h5v-5zM40 70v5h5v-5zM40 65v5h5v-5zM50 65v-5h-5v5zM45 60v-5h-5v5zM45 55v-5h-5v5zM50 50v-5h-5v5zM55 45v-5h-5v5zM60 40v-5h-5v5zM55 35v-5h-5v5zM50 35v-5h-5v5zM45 40v-5h-5v5zM40 45v-5h-5v5zM35 45v-5h-5v5zM55 65v-5h-5v5zM60 60v-5h-5v5zM65 55v-5h-5v5zM70 50v-5h-5v5zM75 45v-5h-5v5zM75 40v-5h-5v5zM75 35v-5h-5v5zM70 30v-5h-5v5zM65 25v-5h-5v5zM60 20v-5h-5v5zM55 20v-5h-5v5zM50 20v-5h-5v5zM45 20v-5h-5v5zM40 25v-5h-5v5zM35 30v-5h-5v5zM30 40v-5h-5v5zM30 35v-5h-5v5zM60 70v-5h-5v5zM60 75v-5h-5v5z"/><path fill="#fff" d="M30 30v5h5v-5zM35 25v5h5v-5zM45 20v5h5v-5zM40 20v5h5v-5zM50 20v5h5v-5zM55 20v5h5v-5z"/><path fill="#F7C21A" d="M65 30v5h5v-5zM60 30v5h5v-5zM65 35v5h5v-5zM30 35v5h5v-5z"/><path fill="#F7931A" d="M40 30v5h5v-5zM35 35v5h5v-5zM45 25v5h5v-5zM50 25v5h5v-5zM55 30v5h5v-5zM60 35v5h5v-5zM60 40v5h5v-5zM55 40v5h5v-5zM55 45v5h5v-5zM50 45v5h5v-5zM50 50v5h5v-5zM45 50v5h5v-5zM50 55v5h5v-5zM50 65v5h5v-5zM45 65v5h5v-5z"/><path fill="#F7C21A" d="M35 30v5h5v-5zM60 25v5h5v-5zM55 25v5h5v-5zM40 25v5h5v-5zM65 40v5h5v-5zM60 45v5h5v-5zM55 50v5h5v-5z"/><path fill="#E25A0E" d="M45 70v5h5v-5zM50 70v5h5v-5zM45 55v5h5v-5z"/></svg>