<svg xmlns="http://www.w3.org/2000/svg" fill="none" viewBox="0 0 50 50"><g clip-path="url(#a)"><path fill="currentColor" fill-rule="evenodd" d="M45 25c0-11.088-8.912-20-20-20S5 13.912 5 25s8.912 20 20 20 20-8.912 20-20Zm5 0C50 11.15 38.85 0 25 0S0 11.15 0 25s11.15 25 25 25 25-11.15 25-25ZM25 38.75a3.25 3.25 0 0 1-3.25-3.25v-11a3.25 3.25 0 0 1 6.5 0v11A3.25 3.25 0 0 1 25 38.75Zm-3.25-24a3.25 3.25 0 1 0 6.5 0 3.25 3.25 0 0 0-6.5 0Z" clip-rule="evenodd"/></g><defs><clipPath id="a"><path fill="#fff" d="M0 0h50v50H0z"/></clipPath></defs></svg>